<?xml version="1.0" standalone="no"?>
<!DOCTYPE svg PUBLIC "-//W3C//DTD SVG 20010904//EN"
 "http://www.w3.org/TR/2001/REC-SVG-20010904/DTD/svg10.dtd">
<svg version="1.0" xmlns="http://www.w3.org/2000/svg"
 width="880.000000pt" height="1280.000000pt" viewBox="0 0 880.000000 1280.000000"
 preserveAspectRatio="xMidYMid meet">
<metadata>
Created by potrace 1.15, written by Peter Selinger 2001-2017
</metadata>
<g transform="translate(0.000000,1280.000000) scale(0.100000,-0.100000)"
fill="#ffeb3b" stroke="none">
<path d="M4100 10483 c-1026 -38 -1847 -159 -2065 -306 -45 -31 -124 -109
-140 -139 -8 -15 -37 -49 -65 -76 -40 -40 -50 -56 -50 -83 0 -19 -9 -47 -20
-64 -24 -37 -27 -111 -4 -143 14 -20 14 -24 0 -44 -20 -28 -20 -105 -1 -138 8
-14 21 -40 30 -57 8 -18 33 -45 55 -59 22 -15 40 -30 40 -34 0 -4 -9 -42 -20
-85 -25 -98 -25 -131 0 -202 11 -32 20 -74 20 -94 0 -84 42 -231 73 -257 26
-22 32 4 32 148 0 113 2 135 15 135 11 0 17 -17 22 -63 10 -93 80 -199 125
-190 20 4 23 36 10 118 -3 25 25 -76 64 -225 39 -148 70 -287 69 -307 0 -20 4
-39 10 -43 6 -4 10 -74 10 -189 0 -154 -2 -186 -16 -197 -52 -43 -58 -124 -14
-192 l30 -48 0 -219 0 -220 -30 -42 c-44 -61 -38 -144 14 -187 14 -12 16 -47
16 -249 l0 -236 -26 -27 c-19 -20 -28 -42 -31 -76 -4 -42 -1 -54 26 -90 l31
-43 0 -234 c0 -200 -2 -235 -16 -247 -51 -42 -58 -122 -14 -172 l30 -35 0
-240 c0 -205 -2 -241 -16 -253 -23 -19 -44 -64 -44 -94 0 -30 21 -75 44 -94
14 -12 16 -48 16 -258 l0 -245 -30 -35 c-20 -22 -30 -45 -30 -65 0 -31 34 -98
51 -98 5 0 9 -105 9 -251 l0 -251 -30 -35 c-40 -46 -40 -90 0 -136 l30 -35 0
-247 0 -247 -30 -35 c-18 -20 -30 -45 -30 -61 0 -30 34 -92 50 -92 13 0 13
-217 0 -225 -6 -3 -9 -25 -9 -48 1 -23 -17 -112 -39 -196 -32 -121 -46 -159
-64 -173 -13 -10 -27 -18 -32 -18 -5 0 -158 29 -340 65 -609 119 -908 170
-1036 178 l-75 5 60 -19 c90 -28 338 -94 530 -139 94 -22 240 -63 325 -90 155
-49 346 -102 366 -103 15 0 -6 -77 -21 -77 -7 0 -25 -32 -40 -70 -21 -52 -32
-69 -44 -66 -9 2 -43 7 -76 11 -88 10 -254 39 -575 101 -157 30 -379 73 -495
96 -115 22 -268 58 -339 79 -121 36 -294 69 -365 69 l-31 0 0 -138 0 -138 107
-12 c129 -15 153 -20 153 -37 0 -28 -101 -37 -222 -20 l-38 5 0 -148 0 -148
53 -13 c97 -25 262 -81 295 -101 33 -20 45 -60 17 -60 -8 0 -15 -4 -15 -9 0
-12 118 -57 286 -110 241 -75 307 -109 341 -176 23 -44 149 -194 192 -228 156
-124 426 -223 1116 -408 472 -127 977 -206 1610 -251 241 -17 1182 -17 1405 0
586 45 939 96 1309 188 332 82 591 179 727 271 71 49 150 131 168 176 32 78
48 174 39 234 -5 35 -5 73 0 93 6 23 5 58 -3 100 -6 36 -15 84 -19 107 -4 23
-20 61 -36 83 -29 42 -112 114 -152 132 -12 6 -27 24 -34 39 -14 35 -107 123
-158 149 -20 10 -65 41 -100 70 -35 28 -94 66 -131 85 -73 37 -261 104 -347
125 -29 6 -53 16 -53 21 0 4 14 32 31 60 136 231 182 402 181 662 -3 391 -97
714 -295 1013 -85 128 -217 282 -302 350 l-35 29 26 51 c23 46 24 56 14 92 -6
23 -22 54 -35 70 -25 30 -25 31 -25 234 0 191 1 206 20 223 10 9 27 37 36 61
16 41 16 47 0 88 -9 24 -26 52 -36 61 -19 17 -20 32 -20 225 0 193 1 208 20
225 10 9 27 37 36 60 19 51 9 98 -31 135 l-25 23 0 212 c0 198 1 213 20 230
10 9 27 37 36 60 19 51 9 98 -31 135 -25 23 -25 24 -25 214 l1 191 45 35 c87
65 234 236 330 383 271 416 361 1036 209 1432 -15 39 -42 112 -60 162 l-33 93
28 -15 c15 -8 30 -12 33 -9 3 3 17 -10 32 -29 62 -83 99 -33 44 59 -11 17 -19
36 -19 41 0 5 59 22 130 37 205 42 296 82 307 136 4 22 13 32 32 37 14 3 46
15 70 25 24 10 46 17 48 15 2 -3 -1 -26 -7 -52 -15 -67 1 -82 39 -37 15 17 31
32 35 32 4 0 7 -17 5 -37 -4 -68 0 -93 15 -93 18 0 39 62 38 114 0 23 2 87 5
144 5 101 5 103 34 117 45 24 99 75 99 94 0 10 9 26 19 35 28 25 35 95 15 145
-12 30 -13 45 -6 54 23 27 24 90 3 132 -12 21 -21 47 -21 56 0 33 -30 85 -64
109 -20 14 -38 33 -42 43 -10 30 -122 144 -167 170 -238 139 -966 248 -1922
287 -211 9 -1039 11 -1245 3z m-1953 -1575 c-3 -8 -6 -5 -6 6 -1 11 2 17 5 13
3 -3 4 -12 1 -19z m3159 -115 c4 -16 20 -75 36 -133 16 -58 29 -121 29 -140
-1 -19 3 -44 10 -56 8 -17 7 -28 -10 -55 -26 -43 -27 -79 -1 -112 19 -24 20
-40 20 -271 0 -140 -4 -246 -9 -246 -5 0 -23 -21 -40 -47 -43 -64 -43 -122 0
-186 17 -26 35 -47 40 -47 5 0 9 -76 9 -171 l0 -172 -357 7 c-530 9 -1829 10
-1898 1 -33 -4 -57 -4 -53 -1 3 4 -18 41 -47 81 -175 244 -275 563 -278 884
-1 128 4 238 10 224 9 -23 42 -13 67 20 104 134 108 139 119 128 23 -23 48 -9
100 57 30 37 62 74 72 82 16 14 17 13 12 -5 -11 -37 -27 -139 -27 -171 0 -18
7 -39 15 -48 8 -8 15 -26 15 -39 0 -58 79 -197 111 -197 25 0 29 9 38 94 9 81
28 120 84 174 31 30 37 32 56 20 31 -19 60 14 68 80 3 29 9 54 13 57 4 2 17
-25 29 -60 25 -69 42 -80 63 -41 l13 24 90 -54 c49 -30 100 -54 112 -54 27 0
28 11 12 93 -15 72 -4 150 19 145 12 -2 19 -17 22 -51 3 -26 11 -52 17 -58 16
-16 59 27 148 150 l80 111 220 0 219 0 -41 -42 c-49 -51 -93 -115 -93 -135 0
-11 7 -13 29 -8 l28 6 -24 -108 c-13 -59 -21 -114 -18 -121 6 -16 28 -4 130
68 l70 49 13 -24 c12 -23 14 -24 36 -10 12 8 52 49 89 90 l66 76 31 -62 c18
-34 44 -73 58 -88 l27 -26 9 35 8 35 34 -31 c71 -67 194 -137 211 -120 4 3 -3
34 -15 69 -12 34 -22 85 -22 114 l0 51 40 -5 c37 -5 40 -4 40 18 0 13 -20 53
-45 88 -25 36 -45 71 -45 78 0 9 18 13 65 13 62 0 65 -1 71 -27z m934 -228
c27 -53 51 -64 60 -27 5 22 7 21 47 -20 23 -24 62 -79 86 -123 24 -44 51 -81
60 -83 11 -2 20 11 30 45 15 47 15 47 15 13 0 -19 3 -82 7 -140 17 -257 -57
-588 -186 -838 -39 -75 -120 -201 -144 -226 -8 -7 -11 -16 -8 -20 8 -8 -100
-8 -121 0 -14 5 -16 29 -16 164 l0 158 30 32 c52 56 50 129 -6 181 l-24 22 0
233 c0 150 4 235 10 239 6 4 10 23 10 43 -1 20 23 131 52 246 47 185 54 206
63 180 5 -16 21 -51 35 -79z m-3540 -1004 c8 -28 7 -31 -5 -21 -8 7 -15 24
-15 38 0 32 8 25 20 -17z m184 -391 c46 -72 122 -169 193 -248 64 -72 233
-214 663 -559 293 -235 596 -538 658 -658 12 -22 21 -35 22 -29 0 18 -68 124
-122 187 -28 34 -92 104 -142 155 -50 50 -86 92 -80 92 19 0 262 -256 300
-316 45 -70 99 -187 109 -234 4 -19 11 -39 15 -45 15 -21 44 -159 65 -315 21
-152 41 -518 29 -530 -5 -5 -29 -10 -54 -12 l-45 -3 3 43 c5 54 -9 55 -69 5
-39 -34 -41 -35 -21 -9 32 41 12 59 -25 24 -16 -14 -48 -36 -73 -48 -25 -13
-56 -30 -70 -40 -14 -9 -62 -32 -107 -50 -46 -18 -83 -36 -83 -41 0 -5 -20
-29 -45 -53 -26 -26 -42 -51 -39 -59 3 -9 -12 -30 -38 -53 -105 -94 -235 -232
-251 -266 -16 -34 -16 -40 -3 -67 39 -74 236 -205 388 -257 39 -13 92 -36 117
-51 53 -31 161 -130 161 -148 0 -7 -13 -18 -30 -25 -16 -7 -50 -34 -75 -62
l-47 -49 -100 47 c-189 88 -215 79 -373 -131 -86 -113 -119 -185 -151 -322
-61 -259 -75 -308 -104 -371 l-31 -67 -77 -32 c-42 -17 -104 -37 -137 -43 -86
-17 -290 -86 -343 -115 -25 -14 -46 -24 -47 -23 -2 2 -12 33 -23 69 -70 228
-50 607 48 884 106 301 318 591 575 790 128 98 400 338 465 409 30 33 84 92
120 130 65 71 270 321 343 420 61 82 151 276 135 292 -3 2 -10 -15 -17 -38
-33 -111 -81 -178 -245 -343 -87 -88 -119 -117 -70 -65 153 163 252 296 268
360 4 14 -4 4 -17 -22 -42 -83 -107 -160 -286 -336 -115 -113 -247 -230 -381
-336 -367 -291 -594 -480 -656 -546 -161 -174 -295 -392 -364 -590 -13 -36
-27 -69 -32 -75 -4 -5 -8 82 -8 194 l0 203 29 34 c60 67 60 145 1 219 l-30 38
0 205 0 204 30 34 c59 67 59 142 0 215 l-30 38 0 205 0 206 35 46 c28 36 35
55 35 90 0 49 -16 89 -49 118 -20 18 -21 28 -21 232 l0 214 35 46 c29 38 35
54 35 94 0 40 -6 56 -35 94 l-35 46 0 216 0 217 35 38 c30 34 35 46 35 89 0
43 -5 55 -35 89 l-35 38 0 225 0 225 24 22 c14 13 30 36 37 53 l12 30 51 -99
c28 -54 64 -118 80 -143z m2428 -1068 c-5 -54 10 -92 52 -131 l26 -24 0 -252
0 -252 -26 -24 c-37 -34 -54 -72 -54 -119 0 -33 7 -48 40 -84 l40 -43 0 -219
0 -219 -176 175 c-194 193 -269 280 -307 355 -14 28 -26 46 -27 42 0 -4 12
-31 26 -60 30 -60 108 -159 209 -267 119 -127 104 -122 -23 8 -152 153 -196
212 -239 315 -36 87 -37 65 -1 -30 22 -60 123 -216 193 -298 23 -27 78 -95
122 -151 45 -56 101 -123 126 -149 l45 -49 -20 -38 c-28 -53 -18 -97 32 -150
l40 -41 0 -255 0 -255 -40 -43 c-35 -38 -40 -50 -40 -90 0 -41 5 -51 40 -86
l40 -40 0 -260 0 -260 -39 -38 c-61 -59 -59 -123 4 -179 l35 -30 0 -116 0
-117 -102 7 c-57 4 -104 8 -105 9 -1 1 4 24 12 51 30 98 12 181 -63 296 -27
41 -56 95 -65 119 -14 41 -29 182 -42 419 -3 51 -19 155 -36 230 -41 176 -45
325 -12 414 41 110 57 213 58 368 0 184 -3 189 -109 189 -60 0 -150 -15 -218
-36 -16 -5 -18 3 -18 68 0 223 54 626 103 768 12 34 12 32 18 -50 l6 -85 -1
97 c-1 53 2 94 5 92 3 -2 12 16 18 39 33 111 164 279 331 426 74 64 74 64 -26
-39 -124 -129 -203 -229 -238 -297 -14 -29 -26 -56 -26 -60 1 -4 13 15 27 42
37 73 79 122 252 298 85 86 156 157 157 157 0 0 -1 -22 -4 -48z m-463 -1579
c-6 -16 -21 -74 -35 -131 -13 -57 -37 -129 -53 -160 -16 -31 -34 -77 -42 -102
-15 -54 -25 -68 -40 -53 -7 7 -8 82 -3 236 l7 226 61 4 c34 2 73 4 88 5 26 2
27 1 17 -25z m-239 -35 c0 -46 -11 -42 -28 10 -10 29 -9 32 9 32 16 0 19 -7
19 -42z m-460 -175 c0 -10 7 -26 15 -36 7 -11 16 -36 20 -56 7 -40 58 -111 80
-111 7 0 15 -6 18 -14 3 -8 16 -16 28 -18 22 -3 48 -32 38 -42 -3 -3 -34 -13
-70 -22 -35 -9 -68 -20 -74 -24 -18 -13 -129 7 -175 33 -25 13 -67 33 -95 43
-27 9 -52 19 -54 21 -2 1 28 35 66 75 39 40 87 92 107 115 21 23 43 40 51 37
7 -3 16 -1 20 5 10 17 25 13 25 -6z m460 -154 c0 -31 -4 -48 -10 -44 -11 7
-13 54 -4 79 10 27 14 18 14 -35z m-355 -179 c-3 -5 -14 -10 -23 -10 -15 0
-15 2 -2 10 20 13 33 13 25 0z m1876 -85 c68 -72 90 -101 144 -185 243 -379
328 -871 224 -1285 l-11 -45 -32 20 c-40 24 -194 83 -262 100 l-50 13 -28 106
c-15 58 -29 122 -30 141 -1 19 -5 42 -9 51 -5 10 4 33 28 68 22 33 35 65 35
85 0 36 -30 105 -53 125 -15 12 -17 39 -17 207 l0 194 30 41 c16 23 32 57 36
76 7 40 -16 111 -46 138 -18 16 -20 31 -19 124 0 58 3 99 6 91 4 -8 27 -37 54
-65z m-2212 -891 c-96 -142 -220 -284 -272 -311 l-30 -15 34 59 c30 53 74 120
164 247 19 27 46 84 61 125 15 42 31 87 36 100 9 25 9 25 55 -21 l45 -46 -93
-138z m464 -198 c87 -76 156 -140 155 -141 -2 -2 -115 -8 -253 -14 -137 -6
-287 -14 -332 -18 -53 -4 -83 -2 -83 4 0 29 73 110 192 214 108 95 136 114
148 105 8 -6 86 -73 173 -150z"/>
<path d="M4420 5655 c0 -5 5 -17 10 -25 5 -8 10 -10 10 -5 0 6 -5 17 -10 25
-5 8 -10 11 -10 5z"/>
<path d="M4454 5480 c0 -52 1 -74 3 -47 2 26 2 68 0 95 -2 26 -3 4 -3 -48z"/>
<path d="M4854 5480 c0 -58 1 -81 3 -52 2 28 2 76 0 105 -2 28 -3 5 -3 -53z"/>
</g>
</svg>
